<svg width="131" height="40" viewBox="0 0 131 40" fill="none" xmlns="http://www.w3.org/2000/svg">
<path d="M0 25.3885V7.37614H4.78292V10.5541H4.99497C5.37195 9.49868 6.00025 8.66608 6.87987 8.05629C7.75949 7.4465 8.81189 7.1416 10.0371 7.1416C11.278 7.1416 12.3343 7.45041 13.2061 8.06802C14.0778 8.67781 14.659 9.5065 14.9496 10.5541H15.1381C15.5072 9.52214 16.1748 8.69735 17.1408 8.07974C18.1146 7.45432 19.2652 7.1416 20.5925 7.1416C22.281 7.1416 23.6515 7.67712 24.7039 8.74817C25.7642 9.8114 26.2943 11.3202 26.2943 13.2747V25.3885H21.2875V14.2597C21.2875 13.2591 21.0205 12.5086 20.4865 12.0082C19.9524 11.5079 19.2848 11.2577 18.4838 11.2577C17.5727 11.2577 16.862 11.547 16.3515 12.1255C15.841 12.6962 15.5857 13.4506 15.5857 14.3887V25.3885H10.7203V14.1542C10.7203 13.2708 10.4651 12.5672 9.95461 12.0434C9.45197 11.5196 8.78833 11.2577 7.96369 11.2577C7.40607 11.2577 6.90343 11.3984 6.45577 11.6799C6.01596 11.9535 5.66647 12.3405 5.4073 12.8408C5.14812 13.3333 5.01854 13.9119 5.01854 14.5764V25.3885H0Z" fill="black"/>
<path d="M38.4342 25.7403C36.6043 25.7403 35.0218 25.3533 33.6866 24.5793C32.3593 23.7975 31.3344 22.7108 30.6119 21.3193C29.8893 19.9199 29.5281 18.2977 29.5281 16.4527C29.5281 14.592 29.8893 12.9659 30.6119 11.5743C31.3344 10.1749 32.3593 9.08824 33.6866 8.31428C35.0218 7.53249 36.6043 7.1416 38.4342 7.1416C40.2641 7.1416 41.8427 7.53249 43.17 8.31428C44.5051 9.08824 45.534 10.1749 46.2565 11.5743C46.9791 12.9659 47.3403 14.592 47.3403 16.4527C47.3403 18.2977 46.9791 19.9199 46.2565 21.3193C45.534 22.7108 44.5051 23.7975 43.17 24.5793C41.8427 25.3533 40.2641 25.7403 38.4342 25.7403ZM38.4578 21.8704C39.2903 21.8704 39.9853 21.6359 40.5429 21.1668C41.1006 20.6899 41.5207 20.041 41.8035 19.2202C42.0941 18.3993 42.2393 17.4651 42.2393 16.4175C42.2393 15.3699 42.0941 14.4357 41.8035 13.6148C41.5207 12.7939 41.1006 12.145 40.5429 11.6681C39.9853 11.1912 39.2903 10.9528 38.4578 10.9528C37.6174 10.9528 36.9106 11.1912 36.3373 11.6681C35.7718 12.145 35.3438 12.7939 35.0532 13.6148C34.7704 14.4357 34.6291 15.3699 34.6291 16.4175C34.6291 17.4651 34.7704 18.3993 35.0532 19.2202C35.3438 20.041 35.7718 20.6899 36.3373 21.1668C36.9106 21.6359 37.6174 21.8704 38.4578 21.8704Z" fill="black"/>
<path d="M58.7793 25.7403C56.9494 25.7403 55.3669 25.3533 54.0317 24.5793C52.7044 23.7975 51.6795 22.7108 50.957 21.3193C50.2344 19.9199 49.8732 18.2977 49.8732 16.4527C49.8732 14.592 50.2344 12.9659 50.957 11.5743C51.6795 10.1749 52.7044 9.08824 54.0317 8.31428C55.3669 7.53249 56.9494 7.1416 58.7793 7.1416C60.6092 7.1416 62.1878 7.53249 63.5151 8.31428C64.8502 9.08824 65.8791 10.1749 66.6016 11.5743C67.3242 12.9659 67.6854 14.592 67.6854 16.4527C67.6854 18.2977 67.3242 19.9199 66.6016 21.3193C65.8791 22.7108 64.8502 23.7975 63.5151 24.5793C62.1878 25.3533 60.6092 25.7403 58.7793 25.7403ZM58.8029 21.8704C59.6354 21.8704 60.3304 21.6359 60.888 21.1668C61.4457 20.6899 61.8658 20.041 62.1486 19.2202C62.4391 18.3993 62.5844 17.4651 62.5844 16.4175C62.5844 15.3699 62.4391 14.4357 62.1486 13.6148C61.8658 12.7939 61.4457 12.145 60.888 11.6681C60.3304 11.1912 59.6354 10.9528 58.8029 10.9528C57.9625 10.9528 57.2557 11.1912 56.6824 11.6681C56.1169 12.145 55.6889 12.7939 55.3983 13.6148C55.1155 14.4357 54.9742 15.3699 54.9742 16.4175C54.9742 17.4651 55.1155 18.3993 55.3983 19.2202C55.6889 20.041 56.1169 20.6899 56.6824 21.1668C57.2557 21.6359 57.9625 21.8704 58.8029 21.8704Z" fill="black"/>
<path d="M79.1244 25.7403C77.2945 25.7403 75.712 25.3533 74.3768 24.5793C73.0495 23.7975 72.0246 22.7108 71.3021 21.3193C70.5795 19.9199 70.2183 18.2977 70.2183 16.4527C70.2183 14.592 70.5795 12.9659 71.3021 11.5743C72.0246 10.1749 73.0495 9.08824 74.3768 8.31428C75.712 7.53249 77.2945 7.1416 79.1244 7.1416C80.9543 7.1416 82.5329 7.53249 83.8602 8.31428C85.1953 9.08824 86.2242 10.1749 86.9467 11.5743C87.6693 12.9659 88.0305 14.592 88.0305 16.4527C88.0305 18.2977 87.6693 19.9199 86.9467 21.3193C86.2242 22.7108 85.1953 23.7975 83.8602 24.5793C82.5329 25.3533 80.9543 25.7403 79.1244 25.7403ZM79.148 21.8704C79.9805 21.8704 80.6755 21.6359 81.2331 21.1668C81.7907 20.6899 82.2109 20.041 82.4937 19.2202C82.7842 18.3993 82.9295 17.4651 82.9295 16.4175C82.9295 15.3699 82.7842 14.4357 82.4937 13.6148C82.2109 12.7939 81.7907 12.145 81.2331 11.6681C80.6755 11.1912 79.9805 10.9528 79.148 10.9528C78.3076 10.9528 77.6008 11.1912 77.0275 11.6681C76.462 12.145 76.034 12.7939 75.7434 13.6148C75.4606 14.4357 75.3193 15.3699 75.3193 16.4175C75.3193 17.4651 75.4606 18.3993 75.7434 19.2202C76.034 20.041 76.462 20.6899 77.0275 21.1668C77.6008 21.6359 78.3076 21.8704 79.148 21.8704Z" fill="black"/>
<path d="M96.3123 14.9751V25.3885H91.2938V7.37614H96.0767V10.5541H96.2887C96.6893 9.5065 97.3608 8.67781 98.3032 8.06802C99.2457 7.45041 100.388 7.1416 101.731 7.1416C102.988 7.1416 104.084 7.41523 105.018 7.96248C105.953 8.50972 106.679 9.29151 107.198 10.3078C107.716 11.3163 107.975 12.5203 107.975 13.9197V25.3885H102.957V14.8109C102.964 13.7086 102.682 12.8486 102.108 12.231C101.535 11.6056 100.746 11.2929 99.7405 11.2929C99.065 11.2929 98.4682 11.4375 97.9498 11.7268C97.4393 12.016 97.0388 12.4382 96.7482 12.9933C96.4654 13.5405 96.3202 14.2011 96.3123 14.9751Z" fill="black"/>
<path d="M111.93 25.3885V7.37614H116.949V25.3885H111.93ZM114.451 5.05424C113.705 5.05424 113.065 4.80797 112.531 4.31545C112.005 3.81511 111.742 3.21704 111.742 2.52126C111.742 1.83328 112.005 1.24304 112.531 0.750514C113.065 0.250171 113.705 0 114.451 0C115.198 0 115.834 0.250171 116.36 0.750514C116.894 1.24304 117.161 1.83328 117.161 2.52126C117.161 3.21704 116.894 3.81511 116.36 4.31545C115.834 4.80797 115.198 5.05424 114.451 5.05424Z" fill="#E54B4B"/>
<path d="M130.594 7.37614V11.1287H119.697V7.37614H130.594ZM122.171 3.06069H127.189V19.8534C127.189 20.3147 127.26 20.6743 127.401 20.9323C127.543 21.1825 127.739 21.3584 127.99 21.46C128.25 21.5616 128.548 21.6124 128.886 21.6124C129.121 21.6124 129.357 21.5929 129.592 21.5538C129.828 21.5069 130.009 21.4717 130.134 21.4483L130.924 25.1656C130.672 25.2438 130.319 25.3337 129.863 25.4354C129.408 25.5448 128.854 25.6113 128.202 25.6347C126.993 25.6816 125.933 25.5214 125.022 25.1539C124.118 24.7865 123.416 24.2158 122.913 23.4418C122.41 22.6678 122.163 21.6906 122.171 20.5101V3.06069Z" fill="#E54B4B"/>
<path d="M40.0335 31.073V30.2668H45.6882V31.073H43.3174V37.7719H42.4044V31.073H40.0335Z" fill="black"/>
<path d="M47.8483 34.3858V37.7719H46.9795V30.2668H47.8483V33.0226H47.9219C48.0545 32.7318 48.2532 32.501 48.5183 32.33C48.7858 32.1565 49.1417 32.0698 49.5859 32.0698C49.9713 32.0698 50.3087 32.1467 50.5983 32.3006C50.8879 32.4521 51.1125 32.6854 51.272 33.0006C51.434 33.3133 51.515 33.7115 51.515 34.1953V37.7719H50.6462V34.2539C50.6462 33.8068 50.5296 33.4611 50.2964 33.2168C50.0657 32.97 49.7455 32.8467 49.3356 32.8467C49.0509 32.8467 48.7956 32.9065 48.5699 33.0262C48.3465 33.146 48.1698 33.3206 48.0397 33.5503C47.9121 33.7799 47.8483 34.0584 47.8483 34.3858Z" fill="black"/>
<path d="M55.4753 37.8892C54.9305 37.8892 54.4605 37.7695 54.0653 37.5301C53.6726 37.2882 53.3695 36.951 53.156 36.5186C52.9449 36.0838 52.8394 35.578 52.8394 35.0015C52.8394 34.4249 52.9449 33.9167 53.156 33.477C53.3695 33.0348 53.6665 32.6903 54.0469 32.4436C54.4298 32.1944 54.8765 32.0698 55.387 32.0698C55.6815 32.0698 55.9723 32.1186 56.2595 32.2164C56.5466 32.3141 56.808 32.4729 57.0436 32.6928C57.2792 32.9102 57.467 33.1985 57.6069 33.5576C57.7468 33.9167 57.8167 34.3589 57.8167 34.8842V35.2507H53.4579V34.5031H56.9332C56.9332 34.1855 56.8693 33.9021 56.7417 33.6529C56.6166 33.4037 56.4374 33.207 56.2042 33.0629C55.9735 32.9187 55.7011 32.8467 55.387 32.8467C55.0409 32.8467 54.7415 32.9322 54.4887 33.1032C54.2383 33.2718 54.0457 33.4916 53.9107 33.7628C53.7757 34.034 53.7082 34.3247 53.7082 34.635V35.1334C53.7082 35.5585 53.7818 35.9188 53.9291 36.2145C54.0788 36.5076 54.2862 36.7312 54.5513 36.8851C54.8163 37.0365 55.1243 37.1123 55.4753 37.1123C55.7036 37.1123 55.9097 37.0805 56.0938 37.017C56.2803 36.951 56.4411 36.8533 56.5761 36.7238C56.711 36.5919 56.8154 36.4282 56.889 36.2328L57.7283 36.4673C57.64 36.7507 57.4915 36.9999 57.2829 37.2149C57.0743 37.4274 56.8166 37.5936 56.5098 37.7133C56.203 37.8306 55.8582 37.8892 55.4753 37.8892Z" fill="black"/>
<path d="M64.4985 37.7719H62.1718V30.2668H64.6016C65.333 30.2668 65.9588 30.417 66.4791 30.7175C66.9994 31.0156 67.3983 31.4443 67.6756 32.0038C67.9529 32.5608 68.0916 33.2278 68.0916 34.0047C68.0916 34.7865 67.9517 35.4595 67.6719 36.0239C67.3921 36.5858 66.9847 37.0182 66.4497 37.3212C65.9146 37.6217 65.2642 37.7719 64.4985 37.7719ZM63.0848 36.9657H64.4396C65.063 36.9657 65.5796 36.846 65.9895 36.6066C66.3994 36.3671 66.7049 36.0263 66.9062 35.5841C67.1074 35.1419 67.208 34.6155 67.208 34.0047C67.208 33.3988 67.1086 32.8772 66.9099 32.4399C66.7111 32.0001 66.4141 31.663 66.0189 31.4285C65.6238 31.1915 65.1317 31.073 64.5427 31.073H63.0848V36.9657Z" fill="black"/>
<path d="M69.5053 37.7719V32.1431H70.3741V37.7719H69.5053ZM69.947 31.2049C69.7777 31.2049 69.6317 31.1475 69.5089 31.0327C69.3887 30.9179 69.3286 30.7798 69.3286 30.6186C69.3286 30.4573 69.3887 30.3193 69.5089 30.2045C69.6317 30.0897 69.7777 30.0323 69.947 30.0323C70.1164 30.0323 70.2612 30.0897 70.3814 30.2045C70.5042 30.3193 70.5655 30.4573 70.5655 30.6186C70.5655 30.7798 70.5042 30.9179 70.3814 31.0327C70.2612 31.1475 70.1164 31.2049 69.947 31.2049Z" fill="black"/>
<path d="M74.2479 40C73.8282 40 73.4674 39.9463 73.1655 39.8388C72.8637 39.7337 72.6121 39.5945 72.4108 39.421C72.212 39.25 72.0537 39.0667 71.9359 38.8713L72.628 38.3876C72.7066 38.4902 72.806 38.6074 72.9262 38.7394C73.0465 38.8737 73.2109 38.9898 73.4196 39.0875C73.6306 39.1877 73.9067 39.2378 74.2479 39.2378C74.7044 39.2378 75.0811 39.1278 75.3781 38.9079C75.675 38.6881 75.8235 38.3436 75.8235 37.8745V36.7312H75.7499C75.6861 36.8338 75.5953 36.9608 75.4775 37.1123C75.3621 37.2613 75.1952 37.3945 74.9768 37.5117C74.7608 37.6266 74.4688 37.684 74.1006 37.684C73.6441 37.684 73.2343 37.5765 72.871 37.3615C72.5102 37.1465 72.2243 36.8338 72.0132 36.4233C71.8046 36.0129 71.7003 35.5145 71.7003 34.9282C71.7003 34.3516 71.8022 33.8496 72.0059 33.422C72.2096 32.992 72.4931 32.6598 72.8563 32.4252C73.2195 32.1883 73.6392 32.0698 74.1153 32.0698C74.4835 32.0698 74.7756 32.1309 74.9915 32.253C75.21 32.3727 75.3769 32.5095 75.4922 32.6634C75.61 32.8149 75.7008 32.9395 75.7646 33.0372H75.853V32.1431H76.6924V37.9332C76.6924 38.4169 76.5819 38.8102 76.361 39.1132C76.1426 39.4185 75.8481 39.6421 75.4775 39.7838C75.1093 39.9279 74.6995 40 74.2479 40ZM74.2184 36.9071C74.5669 36.9071 74.8615 36.8277 75.102 36.6689C75.3425 36.5101 75.5253 36.2816 75.6505 35.9836C75.7757 35.6855 75.8383 35.3288 75.8383 34.9135C75.8383 34.508 75.7769 34.1501 75.6542 33.8398C75.5315 33.5295 75.3499 33.2864 75.1093 33.1105C74.8688 32.9346 74.5718 32.8467 74.2184 32.8467C73.8503 32.8467 73.5435 32.9395 73.2981 33.1252C73.0551 33.3109 72.8723 33.5601 72.7495 33.8728C72.6293 34.1855 72.5691 34.5324 72.5691 34.9135C72.5691 35.3044 72.6305 35.6501 72.7532 35.9506C72.8784 36.2487 73.0625 36.4832 73.3054 36.6542C73.5509 36.8228 73.8552 36.9071 74.2184 36.9071Z" fill="black"/>
<path d="M78.2827 37.7719V32.1431H79.1516V37.7719H78.2827ZM78.7245 31.2049C78.5552 31.2049 78.4091 31.1475 78.2864 31.0327C78.1662 30.9179 78.106 30.7798 78.106 30.6186C78.106 30.4573 78.1662 30.3193 78.2864 30.2045C78.4091 30.0897 78.5552 30.0323 78.7245 30.0323C78.8939 30.0323 79.0387 30.0897 79.1589 30.2045C79.2816 30.3193 79.343 30.4573 79.343 30.6186C79.343 30.7798 79.2816 30.9179 79.1589 31.0327C79.0387 31.1475 78.8939 31.2049 78.7245 31.2049Z" fill="black"/>
<path d="M83.2021 32.1431V32.876H80.2716V32.1431H83.2021ZM81.1257 30.7945H81.9945V36.1595C81.9945 36.4038 82.0301 36.587 82.1013 36.7092C82.1749 36.8289 82.2682 36.9095 82.3811 36.951C82.4964 36.9901 82.6179 37.0097 82.7456 37.0097C82.8413 37.0097 82.9198 37.0048 82.9812 36.995C83.0425 36.9828 83.0916 36.973 83.1284 36.9657L83.3051 37.7426C83.2462 37.7646 83.164 37.7866 83.0585 37.8086C82.9529 37.833 82.8192 37.8452 82.6572 37.8452C82.4118 37.8452 82.1713 37.7927 81.9356 37.6876C81.7025 37.5826 81.5086 37.4226 81.354 37.2076C81.2018 36.9926 81.1257 36.7214 81.1257 36.394V30.7945Z" fill="black"/>
<path d="M86.173 37.9038C85.8146 37.9038 85.4895 37.8367 85.1974 37.7023C84.9053 37.5655 84.6734 37.3688 84.5016 37.1123C84.3298 36.8533 84.2439 36.5406 84.2439 36.1741C84.2439 35.8517 84.3077 35.5903 84.4353 35.3899C84.563 35.1871 84.7335 35.0283 84.9471 34.9135C85.1606 34.7987 85.3962 34.7132 85.6539 34.657C85.914 34.5984 86.1754 34.5519 86.438 34.5177C86.7816 34.4738 87.0602 34.4408 87.2737 34.4188C87.4897 34.3944 87.6468 34.3541 87.7449 34.2979C87.8456 34.2417 87.8959 34.1439 87.8959 34.0047V33.9754C87.8959 33.6138 87.7965 33.3328 87.5977 33.1325C87.4013 32.9322 87.1032 32.832 86.7031 32.832C86.2883 32.832 85.9631 32.9224 85.7275 33.1032C85.4919 33.284 85.3262 33.477 85.2305 33.6822L84.4059 33.389C84.5531 33.047 84.7495 32.7807 84.9949 32.5902C85.2428 32.3971 85.5128 32.2628 85.8048 32.187C86.0993 32.1089 86.389 32.0698 86.6737 32.0698C86.8553 32.0698 87.0639 32.0918 87.2995 32.1357C87.5376 32.1773 87.767 32.264 87.9879 32.3959C88.2113 32.5279 88.3966 32.727 88.5438 32.9933C88.6911 33.2596 88.7647 33.6162 88.7647 34.0633V37.7719H87.8959V37.0097H87.8517C87.7928 37.1318 87.6946 37.2625 87.5572 37.4018C87.4198 37.541 87.2369 37.6595 87.0087 37.7573C86.7804 37.855 86.5018 37.9038 86.173 37.9038ZM86.3055 37.1269C86.6491 37.1269 86.9387 37.0598 87.1743 36.9254C87.4124 36.791 87.5916 36.6176 87.7118 36.405C87.8345 36.1925 87.8959 35.9689 87.8959 35.7344V34.9428C87.8591 34.9868 87.7781 35.0271 87.6529 35.0638C87.5302 35.098 87.3878 35.1285 87.2259 35.1554C87.0663 35.1798 86.9105 35.2018 86.7583 35.2213C86.6086 35.2384 86.4871 35.2531 86.3939 35.2653C86.1681 35.2946 85.957 35.3423 85.7607 35.4082C85.5668 35.4718 85.4097 35.5683 85.2894 35.6977C85.1716 35.8248 85.1127 35.9982 85.1127 36.2181C85.1127 36.5186 85.2244 36.7458 85.4477 36.8997C85.6735 37.0512 85.9595 37.1269 86.3055 37.1269Z" fill="black"/>
<path d="M91.2193 30.2668V37.7719H90.3505V30.2668H91.2193Z" fill="black"/>
<path d="M98.1708 37.7719H95.8441V30.2668H98.2739C99.0052 30.2668 99.6311 30.417 100.151 30.7175C100.672 31.0156 101.071 31.4443 101.348 32.0038C101.625 32.5608 101.764 33.2278 101.764 34.0047C101.764 34.7865 101.624 35.4595 101.344 36.0239C101.064 36.5858 100.657 37.0182 100.122 37.3212C99.5869 37.6217 98.9365 37.7719 98.1708 37.7719ZM96.7571 36.9657H98.1119C98.7353 36.9657 99.2519 36.846 99.6618 36.6066C100.072 36.3671 100.377 36.0263 100.578 35.5841C100.78 35.1419 100.88 34.6155 100.88 34.0047C100.88 33.3988 100.781 32.8772 100.582 32.4399C100.383 32.0001 100.086 31.663 99.6912 31.4285C99.2961 31.1915 98.804 31.073 98.215 31.073H96.7571V36.9657Z" fill="black"/>
<path d="M106.741 35.4705V32.1431H107.61V37.7719H106.741V36.8191H106.682C106.55 37.105 106.344 37.348 106.064 37.5484C105.784 37.7463 105.431 37.8452 105.004 37.8452C104.65 37.8452 104.336 37.7683 104.061 37.6143C103.786 37.458 103.57 37.2234 103.413 36.9107C103.256 36.5956 103.178 36.1986 103.178 35.7197V32.1431H104.046V35.6611C104.046 36.0715 104.162 36.3989 104.392 36.6432C104.626 36.8875 104.923 37.0097 105.283 37.0097C105.499 37.0097 105.719 36.9547 105.942 36.8448C106.168 36.7348 106.357 36.5663 106.509 36.3391C106.664 36.1118 106.741 35.8223 106.741 35.4705Z" fill="black"/>
<path d="M110.011 35.7197L109.996 34.6497H110.173L112.647 32.1431H113.722L111.086 34.7962H111.013L110.011 35.7197ZM109.201 37.7719V30.2668H110.07V37.7719H109.201ZM112.794 37.7719L110.586 34.9868L111.204 34.3858L113.899 37.7719H112.794Z" fill="black"/>
<path d="M116.504 37.9038C116.146 37.9038 115.821 37.8367 115.529 37.7023C115.237 37.5655 115.005 37.3688 114.833 37.1123C114.661 36.8533 114.575 36.5406 114.575 36.1741C114.575 35.8517 114.639 35.5903 114.767 35.3899C114.894 35.1871 115.065 35.0283 115.278 34.9135C115.492 34.7987 115.728 34.7132 115.985 34.657C116.245 34.5984 116.507 34.5519 116.769 34.5177C117.113 34.4738 117.392 34.4408 117.605 34.4188C117.821 34.3944 117.978 34.3541 118.076 34.2979C118.177 34.2417 118.227 34.1439 118.227 34.0047V33.9754C118.227 33.6138 118.128 33.3328 117.929 33.1325C117.733 32.9322 117.435 32.832 117.034 32.832C116.62 32.832 116.294 32.9224 116.059 33.1032C115.823 33.284 115.658 33.477 115.562 33.6822L114.737 33.389C114.885 33.047 115.081 32.7807 115.326 32.5902C115.574 32.3971 115.844 32.2628 116.136 32.187C116.431 32.1089 116.72 32.0698 117.005 32.0698C117.187 32.0698 117.395 32.0918 117.631 32.1357C117.869 32.1773 118.098 32.264 118.319 32.3959C118.543 32.5279 118.728 32.727 118.875 32.9933C119.022 33.2596 119.096 33.6162 119.096 34.0633V37.7719H118.227V37.0097H118.183C118.124 37.1318 118.026 37.2625 117.889 37.4018C117.751 37.541 117.568 37.6595 117.34 37.7573C117.112 37.855 116.833 37.9038 116.504 37.9038ZM116.637 37.1269C116.98 37.1269 117.27 37.0598 117.506 36.9254C117.744 36.791 117.923 36.6176 118.043 36.405C118.166 36.1925 118.227 35.9689 118.227 35.7344V34.9428C118.19 34.9868 118.109 35.0271 117.984 35.0638C117.862 35.098 117.719 35.1285 117.557 35.1554C117.398 35.1798 117.242 35.2018 117.09 35.2213C116.94 35.2384 116.818 35.2531 116.725 35.2653C116.499 35.2946 116.288 35.3423 116.092 35.4082C115.898 35.4718 115.741 35.5683 115.621 35.6977C115.503 35.8248 115.444 35.9982 115.444 36.2181C115.444 36.5186 115.556 36.7458 115.779 36.8997C116.005 37.0512 116.291 37.1269 116.637 37.1269Z" fill="black"/>
<path d="M122.346 37.9038C121.988 37.9038 121.662 37.8367 121.37 37.7023C121.078 37.5655 120.846 37.3688 120.674 37.1123C120.503 36.8533 120.417 36.5406 120.417 36.1741C120.417 35.8517 120.481 35.5903 120.608 35.3899C120.736 35.1871 120.906 35.0283 121.12 34.9135C121.333 34.7987 121.569 34.7132 121.827 34.657C122.087 34.5984 122.348 34.5519 122.611 34.5177C122.955 34.4738 123.233 34.4408 123.447 34.4188C123.663 34.3944 123.82 34.3541 123.918 34.2979C124.018 34.2417 124.069 34.1439 124.069 34.0047V33.9754C124.069 33.6138 123.969 33.3328 123.771 33.1325C123.574 32.9322 123.276 32.832 122.876 32.832C122.461 32.832 122.136 32.9224 121.9 33.1032C121.665 33.284 121.499 33.477 121.403 33.6822L120.579 33.389C120.726 33.047 120.922 32.7807 121.168 32.5902C121.416 32.3971 121.686 32.2628 121.978 32.187C122.272 32.1089 122.562 32.0698 122.847 32.0698C123.028 32.0698 123.237 32.0918 123.472 32.1357C123.71 32.1773 123.94 32.264 124.161 32.3959C124.384 32.5279 124.569 32.727 124.717 32.9933C124.864 33.2596 124.938 33.6162 124.938 34.0633V37.7719H124.069V37.0097H124.025C123.966 37.1318 123.868 37.2625 123.73 37.4018C123.593 37.541 123.41 37.6595 123.182 37.7573C122.953 37.855 122.675 37.9038 122.346 37.9038ZM122.478 37.1269C122.822 37.1269 123.112 37.0598 123.347 36.9254C123.585 36.791 123.764 36.6176 123.885 36.405C124.007 36.1925 124.069 35.9689 124.069 35.7344V34.9428C124.032 34.9868 123.951 35.0271 123.826 35.0638C123.703 35.098 123.561 35.1285 123.399 35.1554C123.239 35.1798 123.083 35.2018 122.931 35.2213C122.782 35.2384 122.66 35.2531 122.567 35.2653C122.341 35.2946 122.13 35.3423 121.934 35.4082C121.74 35.4718 121.583 35.5683 121.462 35.6977C121.345 35.8248 121.286 35.9982 121.286 36.2181C121.286 36.5186 121.397 36.7458 121.621 36.8997C121.846 37.0512 122.132 37.1269 122.478 37.1269Z" fill="black"/>
<path d="M127.392 34.3858V37.7719H126.523V32.1431H127.363V33.0226H127.436C127.569 32.7367 127.77 32.5071 128.04 32.3336C128.31 32.1577 128.659 32.0698 129.086 32.0698C129.469 32.0698 129.804 32.148 130.091 32.3043C130.378 32.4582 130.601 32.6928 130.761 33.0079C130.92 33.3206 131 33.7164 131 34.1953V37.7719H130.131V34.2539C130.131 33.8117 130.016 33.4672 129.785 33.2205C129.554 32.9713 129.238 32.8467 128.835 32.8467C128.558 32.8467 128.31 32.9065 128.092 33.0262C127.876 33.146 127.705 33.3206 127.58 33.5503C127.455 33.7799 127.392 34.0584 127.392 34.3858Z" fill="black"/>
</svg>
