<svg width="183" height="57" viewBox="0 0 183 57" fill="none" xmlns="http://www.w3.org/2000/svg">
<path d="M0 36.4349V11.2177H6.68149V15.6668H6.97771C7.50433 14.1893 8.38203 13.0236 9.61081 12.1699C10.8396 11.3162 12.3097 10.8894 14.0213 10.8894C15.7547 10.8894 17.2303 11.3217 18.4482 12.1863C19.666 13.04 20.4778 14.2002 20.8838 15.6668H21.1471C21.6627 14.2221 22.5953 13.0674 23.9447 12.2028C25.3052 11.3272 26.9125 10.8894 28.7666 10.8894C31.1254 10.8894 33.0399 11.6391 34.5101 13.1385C35.9912 14.6271 36.7317 16.7394 36.7317 19.4757V36.4349H29.7376V20.8548C29.7376 19.4538 29.3645 18.4031 28.6185 17.7026C27.8725 17.0021 26.9399 16.6519 25.8208 16.6519C24.5482 16.6519 23.5553 17.0569 22.8421 17.8668C22.129 18.6658 21.7724 19.722 21.7724 21.0354V36.4349H14.9758V20.707C14.9758 19.4702 14.6192 18.4852 13.9061 17.7519C13.2039 17.0185 12.2768 16.6519 11.1248 16.6519C10.3459 16.6519 9.64373 16.8489 9.01836 17.2429C8.40398 17.626 7.91575 18.1678 7.5537 18.8682C7.19165 19.5578 7.01063 20.3677 7.01063 21.298V36.4349H0Z" fill="white"/>
<path d="M53.6905 36.9275C51.1342 36.9275 48.9235 36.3857 47.0584 35.3021C45.2043 34.2076 43.7725 32.6863 42.7632 30.7381C41.7538 28.7789 41.2491 26.5078 41.2491 23.9248C41.2491 21.3199 41.7538 19.0434 42.7632 17.0952C43.7725 15.136 45.2043 13.6147 47.0584 12.5311C48.9235 11.4366 51.1342 10.8894 53.6905 10.8894C56.2468 10.8894 58.4521 11.4366 60.3062 12.5311C62.1713 13.6147 63.6085 15.136 64.6179 17.0952C65.6273 19.0434 66.1319 21.3199 66.1319 23.9248C66.1319 26.5078 65.6273 28.7789 64.6179 30.7381C63.6085 32.6863 62.1713 34.2076 60.3062 35.3021C58.4521 36.3857 56.2468 36.9275 53.6905 36.9275ZM53.7235 31.5097C54.8864 31.5097 55.8574 31.1814 56.6363 30.5247C57.4153 29.857 58.0022 28.9486 58.3972 27.7994C58.8031 26.6501 59.0061 25.3422 59.0061 23.8756C59.0061 22.4089 58.8031 21.101 58.3972 19.9518C58.0022 18.8026 57.4153 17.8941 56.6363 17.2265C55.8574 16.5589 54.8864 16.225 53.7235 16.225C52.5495 16.225 51.5621 16.5589 50.7612 17.2265C49.9713 17.8941 49.3734 18.8026 48.9674 19.9518C48.5724 21.101 48.375 22.4089 48.375 23.8756C48.375 25.3422 48.5724 26.6501 48.9674 27.7994C49.3734 28.9486 49.9713 29.857 50.7612 30.5247C51.5621 31.1814 52.5495 31.5097 53.7235 31.5097Z" fill="white"/>
<path d="M82.1115 36.9275C79.5553 36.9275 77.3445 36.3857 75.4794 35.3021C73.6253 34.2076 72.1935 32.6863 71.1842 30.7381C70.1748 28.7789 69.6702 26.5078 69.6702 23.9248C69.6702 21.3199 70.1748 19.0434 71.1842 17.0952C72.1935 15.136 73.6253 13.6147 75.4794 12.5311C77.3445 11.4366 79.5553 10.8894 82.1115 10.8894C84.6679 10.8894 86.8731 11.4366 88.7272 12.5311C90.5923 13.6147 92.0296 15.136 93.0389 17.0952C94.0483 19.0434 94.5529 21.3199 94.5529 23.9248C94.5529 26.5078 94.0483 28.7789 93.0389 30.7381C92.0296 32.6863 90.5923 34.2076 88.7272 35.3021C86.8731 36.3857 84.6679 36.9275 82.1115 36.9275ZM82.1445 31.5097C83.3074 31.5097 84.2784 31.1814 85.0573 30.5247C85.8363 29.857 86.4232 28.9486 86.8182 27.7994C87.2242 26.6501 87.4271 25.3422 87.4271 23.8756C87.4271 22.4089 87.2242 21.101 86.8182 19.9518C86.4232 18.8026 85.8363 17.8941 85.0573 17.2265C84.2784 16.5589 83.3074 16.225 82.1445 16.225C80.9705 16.225 79.9831 16.5589 79.1822 17.2265C78.3923 17.8941 77.7944 18.8026 77.3884 19.9518C76.9935 21.101 76.796 22.4089 76.796 23.8756C76.796 25.3422 76.9935 26.6501 77.3884 27.7994C77.7944 28.9486 78.3923 29.857 79.1822 30.5247C79.9831 31.1814 80.9705 31.5097 82.1445 31.5097Z" fill="white"/>
<path d="M110.533 36.9275C107.976 36.9275 105.766 36.3857 103.9 35.3021C102.046 34.2076 100.615 32.6863 99.6052 30.7381C98.5959 28.7789 98.0912 26.5078 98.0912 23.9248C98.0912 21.3199 98.5959 19.0434 99.6052 17.0952C100.615 15.136 102.046 13.6147 103.9 12.5311C105.766 11.4366 107.976 10.8894 110.533 10.8894C113.089 10.8894 115.294 11.4366 117.148 12.5311C119.013 13.6147 120.451 15.136 121.46 17.0952C122.469 19.0434 122.974 21.3199 122.974 23.9248C122.974 26.5078 122.469 28.7789 121.46 30.7381C120.451 32.6863 119.013 34.2076 117.148 35.3021C115.294 36.3857 113.089 36.9275 110.533 36.9275ZM110.565 31.5097C111.728 31.5097 112.699 31.1814 113.478 30.5247C114.257 29.857 114.844 28.9486 115.239 27.7994C115.645 26.6501 115.848 25.3422 115.848 23.8756C115.848 22.4089 115.645 21.101 115.239 19.9518C114.844 18.8026 114.257 17.8941 113.478 17.2265C112.699 16.5589 111.728 16.225 110.565 16.225C109.392 16.225 108.404 16.5589 107.603 17.2265C106.813 17.8941 106.215 18.8026 105.809 19.9518C105.414 21.101 105.217 22.4089 105.217 23.8756C105.217 25.3422 105.414 26.6501 105.809 27.7994C106.215 28.9486 106.813 29.857 107.603 30.5247C108.404 31.1814 109.392 31.5097 110.565 31.5097Z" fill="white"/>
<path d="M134.543 21.8562V36.4349H127.533V11.2177H134.214V15.6668H134.51C135.07 14.2002 136.008 13.04 137.324 12.1863C138.641 11.3217 140.237 10.8894 142.113 10.8894C143.869 10.8894 145.399 11.2724 146.705 12.0386C148.01 12.8047 149.025 13.8992 149.749 15.3221C150.473 16.734 150.835 18.4195 150.835 20.3787V36.4349H143.825V21.6264C143.836 20.0831 143.441 18.8792 142.64 18.0145C141.839 17.1389 140.736 16.7011 139.332 16.7011C138.389 16.7011 137.555 16.9036 136.831 17.3086C136.118 17.7136 135.558 18.3046 135.152 19.0817C134.757 19.8478 134.554 20.7727 134.543 21.8562Z" fill="white"/>
<path d="M156.361 36.4349V11.2177H163.371V36.4349H156.361ZM159.883 7.96704C158.84 7.96704 157.946 7.62228 157.2 6.93274C156.465 6.23226 156.098 5.39497 156.098 4.42087C156.098 3.45771 156.465 2.63137 157.2 1.94183C157.946 1.24135 158.84 0.891113 159.883 0.891113C160.925 0.891113 161.814 1.24135 162.549 1.94183C163.295 2.63137 163.668 3.45771 163.668 4.42087C163.668 5.39497 163.295 6.23226 162.549 6.93274C161.814 7.62228 160.925 7.96704 159.883 7.96704Z" fill="#E54B4B"/>
<path d="M182.433 11.2177V16.4713H167.21V11.2177H182.433ZM170.666 5.17607H177.677V28.6859C177.677 29.3316 177.775 29.8351 177.973 30.1963C178.17 30.5465 178.445 30.7928 178.796 30.9351C179.158 31.0774 179.575 31.1485 180.046 31.1485C180.376 31.1485 180.705 31.1212 181.034 31.0664C181.363 31.0008 181.615 30.9515 181.791 30.9187L182.893 36.123C182.542 36.2325 182.049 36.3583 181.412 36.5006C180.776 36.6538 180.003 36.7469 179.092 36.7797C177.402 36.8454 175.921 36.621 174.649 36.1066C173.387 35.5922 172.405 34.7932 171.703 33.7096C171.001 32.6261 170.655 31.258 170.666 29.6053V5.17607Z" fill="#E54B4B"/>
<path d="M55.9247 44.3933V43.2646H63.824V44.3933H60.512V53.7718H59.2366V44.3933H55.9247Z" fill="white"/>
<path d="M66.8415 49.0312V53.7718H65.6278V43.2646H66.8415V47.1227H66.9444C67.1295 46.7157 67.4072 46.3925 67.7775 46.1531C68.1512 45.9102 68.6483 45.7888 69.2689 45.7888C69.8072 45.7888 70.2786 45.8965 70.6832 46.112C71.0877 46.3241 71.4014 46.6507 71.6243 47.0919C71.8506 47.5297 71.9637 48.0872 71.9637 48.7645V53.7718H70.75V48.8466C70.75 48.2206 70.5872 47.7367 70.2614 47.3946C69.9392 47.0492 69.4917 46.8765 68.9192 46.8765C68.5215 46.8765 68.1649 46.9603 67.8495 47.1278C67.5375 47.2954 67.2906 47.54 67.1089 47.8615C66.9306 48.183 66.8415 48.5729 66.8415 49.0312Z" fill="white"/>
<path d="M77.496 53.936C76.7349 53.936 76.0784 53.7684 75.5264 53.4332C74.9778 53.0946 74.5544 52.6226 74.2561 52.0172C73.9612 51.4084 73.8138 50.7004 73.8138 49.8932C73.8138 49.086 73.9612 48.3745 74.2561 47.7589C74.5544 47.1398 74.9692 46.6576 75.5006 46.3121C76.0355 45.9632 76.6595 45.7888 77.3726 45.7888C77.784 45.7888 78.1903 45.8572 78.5915 45.994C78.9926 46.1308 79.3577 46.3531 79.6869 46.661C80.016 46.9654 80.2783 47.369 80.4737 47.8718C80.6691 48.3745 80.7668 48.9936 80.7668 49.729V50.242H74.6778V49.1954H79.5326C79.5326 48.7508 79.4434 48.354 79.2652 48.0052C79.0903 47.6563 78.84 47.3809 78.5143 47.1791C78.192 46.9774 77.8115 46.8765 77.3726 46.8765C76.8892 46.8765 76.4709 46.9962 76.1178 47.2356C75.7681 47.4716 75.4989 47.7794 75.3104 48.1591C75.1218 48.5387 75.0275 48.9457 75.0275 49.3801V50.0779C75.0275 50.673 75.1304 51.1775 75.3361 51.5913C75.5452 52.0018 75.8349 52.3147 76.2052 52.5302C76.5755 52.7423 77.0058 52.8483 77.496 52.8483C77.8149 52.8483 78.1029 52.8038 78.36 52.7149C78.6206 52.6226 78.8452 52.4858 79.0337 52.3045C79.2223 52.1198 79.368 51.8906 79.4709 51.617L80.6434 51.9454C80.52 52.3421 80.3126 52.691 80.0211 52.992C79.7297 53.2895 79.3697 53.5221 78.9412 53.6897C78.5126 53.8539 78.0309 53.936 77.496 53.936Z" fill="white"/>
<path d="M90.101 53.7718H86.8507V43.2646H90.245C91.2667 43.2646 92.1409 43.475 92.8678 43.8957C93.5946 44.3129 94.1518 44.9132 94.5392 45.6964C94.9266 46.4763 95.1203 47.41 95.1203 48.4977C95.1203 49.5922 94.9249 50.5345 94.534 51.3246C94.1432 52.1112 93.5741 52.7166 92.8266 53.1407C92.0792 53.5614 91.1707 53.7718 90.101 53.7718ZM88.1262 52.6431H90.0187C90.8895 52.6431 91.6112 52.4755 92.1838 52.1403C92.7564 51.8051 93.1832 51.328 93.4643 50.7089C93.7455 50.0898 93.8861 49.3528 93.8861 48.4977C93.8861 47.6494 93.7472 46.9192 93.4695 46.307C93.1918 45.6913 92.7769 45.2193 92.2249 44.891C91.673 44.5592 90.9855 44.3933 90.1627 44.3933H88.1262V52.6431Z" fill="white"/>
<path d="M97.0951 53.7718V45.8914H98.3088V53.7718H97.0951ZM97.7123 44.578C97.4757 44.578 97.2717 44.4976 97.1003 44.3369C96.9323 44.1761 96.8483 43.9829 96.8483 43.7571C96.8483 43.5314 96.9323 43.3381 97.1003 43.1774C97.2717 43.0166 97.4757 42.9363 97.7123 42.9363C97.9488 42.9363 98.1511 43.0166 98.3191 43.1774C98.4905 43.3381 98.5763 43.5314 98.5763 43.7571C98.5763 43.9829 98.4905 44.1761 98.3191 44.3369C98.1511 44.4976 97.9488 44.578 97.7123 44.578Z" fill="white"/>
<path d="M103.72 56.8911C103.134 56.8911 102.63 56.8159 102.208 56.6654C101.787 56.5183 101.435 56.3233 101.154 56.0805C100.876 55.8411 100.655 55.5846 100.491 55.3109L101.458 54.6337C101.567 54.7774 101.706 54.9415 101.874 55.1262C102.042 55.3144 102.272 55.4768 102.563 55.6136C102.858 55.7539 103.244 55.824 103.72 55.824C104.358 55.824 104.884 55.6701 105.299 55.3622C105.714 55.0544 105.921 54.5721 105.921 53.9154V52.3147H105.819C105.729 52.4584 105.603 52.6363 105.438 52.8483C105.277 53.0569 105.044 53.2434 104.739 53.4075C104.437 53.5683 104.029 53.6487 103.515 53.6487C102.877 53.6487 102.304 53.4982 101.797 53.1972C101.293 52.8962 100.894 52.4584 100.599 51.8838C100.307 51.3092 100.162 50.6114 100.162 49.7906C100.162 48.9834 100.304 48.2805 100.588 47.6819C100.873 47.08 101.269 46.6148 101.776 46.2864C102.284 45.9547 102.87 45.7888 103.535 45.7888C104.049 45.7888 104.457 45.8743 104.759 46.0453C105.064 46.2129 105.297 46.4045 105.459 46.6199C105.623 46.832 105.75 47.0064 105.839 47.1432H105.963V45.8914H107.135V53.9975C107.135 54.6748 106.981 55.2254 106.672 55.6495C106.367 56.0771 105.956 56.39 105.438 56.5884C104.924 56.7902 104.351 56.8911 103.72 56.8911ZM103.679 52.561C104.166 52.561 104.577 52.4498 104.913 52.2275C105.249 52.0052 105.505 51.6854 105.68 51.2681C105.855 50.8509 105.942 50.3515 105.942 49.77C105.942 49.2023 105.856 48.7012 105.685 48.2668C105.513 47.8324 105.26 47.4921 104.924 47.2458C104.588 46.9996 104.173 46.8765 103.679 46.8765C103.165 46.8765 102.736 47.0064 102.393 47.2664C102.054 47.5263 101.799 47.8752 101.627 48.313C101.459 48.7508 101.375 49.2365 101.375 49.77C101.375 50.3173 101.461 50.8013 101.632 51.222C101.807 51.6392 102.064 51.9676 102.404 52.207C102.747 52.443 103.172 52.561 103.679 52.561Z" fill="white"/>
<path d="M109.357 53.7718V45.8914H110.57V53.7718H109.357ZM109.974 44.578C109.737 44.578 109.533 44.4976 109.362 44.3369C109.194 44.1761 109.11 43.9829 109.11 43.7571C109.11 43.5314 109.194 43.3381 109.362 43.1774C109.533 43.0166 109.737 42.9363 109.974 42.9363C110.21 42.9363 110.413 43.0166 110.581 43.1774C110.752 43.3381 110.838 43.5314 110.838 43.7571C110.838 43.9829 110.752 44.1761 110.581 44.3369C110.413 44.4976 110.21 44.578 109.974 44.578Z" fill="white"/>
<path d="M116.229 45.8914V46.9175H112.135V45.8914H116.229ZM113.328 44.0034H114.542V51.5144C114.542 51.8564 114.592 52.1129 114.691 52.284C114.794 52.4516 114.924 52.5644 115.082 52.6226C115.243 52.6773 115.413 52.7047 115.591 52.7047C115.725 52.7047 115.835 52.6978 115.92 52.6841C116.006 52.667 116.075 52.6534 116.126 52.6431L116.373 53.7307C116.291 53.7615 116.176 53.7923 116.028 53.8231C115.881 53.8573 115.694 53.8744 115.468 53.8744C115.125 53.8744 114.789 53.8009 114.46 53.6538C114.134 53.5067 113.863 53.2827 113.647 52.9817C113.435 52.6807 113.328 52.3011 113.328 51.8427V44.0034Z" fill="white"/>
<path d="M120.379 53.9565C119.878 53.9565 119.424 53.8624 119.016 53.6743C118.608 53.4828 118.284 53.2074 118.044 52.8483C117.804 52.4858 117.684 52.048 117.684 51.5349C117.684 51.0834 117.773 50.7175 117.952 50.437C118.13 50.1531 118.368 49.9308 118.667 49.77C118.965 49.6093 119.294 49.4896 119.654 49.4109C120.017 49.3288 120.382 49.2638 120.749 49.2159C121.229 49.1544 121.618 49.1082 121.917 49.0774C122.218 49.0432 122.438 48.9868 122.575 48.9081C122.716 48.8295 122.786 48.6926 122.786 48.4977V48.4566C122.786 47.9504 122.647 47.5571 122.369 47.2766C122.095 46.9962 121.678 46.8559 121.12 46.8559C120.54 46.8559 120.086 46.9825 119.757 47.2356C119.428 47.4887 119.196 47.7589 119.062 48.0462L117.911 47.6358C118.116 47.1569 118.391 46.7841 118.733 46.5173C119.08 46.2471 119.457 46.059 119.865 45.953C120.276 45.8435 120.681 45.7888 121.078 45.7888C121.332 45.7888 121.624 45.8196 121.953 45.8811C122.285 45.9393 122.606 46.0607 122.914 46.2454C123.226 46.4301 123.485 46.7089 123.691 47.0817C123.897 47.4545 124 47.9538 124 48.5798V53.7718H122.786V52.7047H122.724C122.642 52.8757 122.505 53.0587 122.313 53.2536C122.121 53.4486 121.865 53.6145 121.546 53.7513C121.228 53.8881 120.838 53.9565 120.379 53.9565ZM120.564 52.8688C121.044 52.8688 121.449 52.7748 121.778 52.5867C122.11 52.3985 122.361 52.1557 122.529 51.8581C122.7 51.5606 122.786 51.2476 122.786 50.9193V49.8111C122.734 49.8726 122.621 49.9291 122.446 49.9804C122.275 50.0283 122.076 50.071 121.85 50.1086C121.627 50.1428 121.409 50.1736 121.197 50.201C120.988 50.2249 120.818 50.2455 120.688 50.2626C120.372 50.3036 120.077 50.3703 119.803 50.4626C119.532 50.5516 119.313 50.6867 119.145 50.868C118.98 51.0458 118.898 51.2887 118.898 51.5965C118.898 52.0172 119.054 52.3353 119.366 52.5507C119.681 52.7628 120.081 52.8688 120.564 52.8688Z" fill="white"/>
<path d="M127.428 43.2646V53.7718H126.215V43.2646H127.428Z" fill="white"/>
<path d="M137.139 53.7718H133.889V43.2646H137.283C138.305 43.2646 139.179 43.475 139.906 43.8957C140.633 44.3129 141.19 44.9132 141.578 45.6964C141.965 46.4763 142.159 47.41 142.159 48.4977C142.159 49.5922 141.963 50.5345 141.572 51.3246C141.182 52.1112 140.612 52.7166 139.865 53.1407C139.118 53.5614 138.209 53.7718 137.139 53.7718ZM135.165 52.6431H137.057C137.928 52.6431 138.65 52.4755 139.222 52.1403C139.795 51.8051 140.222 51.328 140.503 50.7089C140.784 50.0898 140.924 49.3528 140.924 48.4977C140.924 47.6494 140.786 46.9192 140.508 46.307C140.23 45.6913 139.815 45.2193 139.263 44.891C138.711 44.5592 138.024 44.3933 137.201 44.3933H135.165V52.6431Z" fill="white"/>
<path d="M149.112 50.5499V45.8914H150.325V53.7718H149.112V52.4379H149.029C148.844 52.838 148.556 53.1784 148.165 53.4588C147.775 53.7359 147.281 53.8744 146.684 53.8744C146.191 53.8744 145.752 53.7667 145.368 53.5512C144.984 53.3323 144.682 53.0039 144.463 52.5661C144.243 52.1249 144.134 51.5691 144.134 50.8987V45.8914H145.347V50.8167C145.347 51.3913 145.508 51.8496 145.831 52.1916C146.156 52.5336 146.571 52.7047 147.075 52.7047C147.377 52.7047 147.684 52.6277 147.996 52.4738C148.311 52.3199 148.575 52.0839 148.788 51.7658C149.004 51.4477 149.112 51.0424 149.112 50.5499Z" fill="white"/>
<path d="M153.68 50.8987L153.659 49.4006H153.906L157.362 45.8914H158.864L155.181 49.6059H155.079L153.68 50.8987ZM152.548 53.7718V43.2646H153.762V53.7718H152.548ZM157.568 53.7718L154.482 49.8726L155.346 49.0312L159.111 53.7718H157.568Z" fill="white"/>
<path d="M162.75 53.9565C162.25 53.9565 161.796 53.8624 161.388 53.6743C160.98 53.4828 160.656 53.2074 160.416 52.8483C160.176 52.4858 160.056 52.048 160.056 51.5349C160.056 51.0834 160.145 50.7175 160.323 50.437C160.501 50.1531 160.74 49.9308 161.038 49.77C161.336 49.6093 161.665 49.4896 162.025 49.4109C162.389 49.3288 162.754 49.2638 163.121 49.2159C163.601 49.1544 163.99 49.1082 164.288 49.0774C164.59 49.0432 164.809 48.9868 164.946 48.9081C165.087 48.8295 165.157 48.6926 165.157 48.4977V48.4566C165.157 47.9504 165.018 47.5571 164.741 47.2766C164.466 46.9962 164.05 46.8559 163.491 46.8559C162.911 46.8559 162.457 46.9825 162.128 47.2356C161.799 47.4887 161.568 47.7589 161.434 48.0462L160.282 47.6358C160.488 47.1569 160.762 46.7841 161.105 46.5173C161.451 46.2471 161.828 46.059 162.236 45.953C162.647 45.8435 163.052 45.7888 163.45 45.7888C163.703 45.7888 163.995 45.8196 164.324 45.8811C164.657 45.9393 164.977 46.0607 165.286 46.2454C165.598 46.4301 165.857 46.7089 166.062 47.0817C166.268 47.4545 166.371 47.9538 166.371 48.5798V53.7718H165.157V52.7047H165.095C165.013 52.8757 164.876 53.0587 164.684 53.2536C164.492 53.4486 164.237 53.6145 163.918 53.7513C163.599 53.8881 163.21 53.9565 162.75 53.9565ZM162.935 52.8688C163.415 52.8688 163.82 52.7748 164.149 52.5867C164.482 52.3985 164.732 52.1557 164.9 51.8581C165.071 51.5606 165.157 51.2476 165.157 50.9193V49.8111C165.106 49.8726 164.993 49.9291 164.818 49.9804C164.646 50.0283 164.447 50.071 164.221 50.1086C163.998 50.1428 163.781 50.1736 163.568 50.201C163.359 50.2249 163.189 50.2455 163.059 50.2626C162.743 50.3036 162.449 50.3703 162.174 50.4626C161.903 50.5516 161.684 50.6867 161.516 50.868C161.352 51.0458 161.269 51.2887 161.269 51.5965C161.269 52.0172 161.425 52.3353 161.737 52.5507C162.053 52.7628 162.452 52.8688 162.935 52.8688Z" fill="white"/>
<path d="M170.911 53.9565C170.41 53.9565 169.956 53.8624 169.548 53.6743C169.14 53.4828 168.816 53.2074 168.576 52.8483C168.336 52.4858 168.216 52.048 168.216 51.5349C168.216 51.0834 168.305 50.7175 168.483 50.437C168.662 50.1531 168.9 49.9308 169.198 49.77C169.496 49.6093 169.826 49.4896 170.186 49.4109C170.549 49.3288 170.914 49.2638 171.281 49.2159C171.761 49.1544 172.15 49.1082 172.448 49.0774C172.75 49.0432 172.969 48.9868 173.107 48.9081C173.247 48.8295 173.317 48.6926 173.317 48.4977V48.4566C173.317 47.9504 173.179 47.5571 172.901 47.2766C172.627 46.9962 172.21 46.8559 171.651 46.8559C171.072 46.8559 170.617 46.9825 170.288 47.2356C169.959 47.4887 169.728 47.7589 169.594 48.0462L168.442 47.6358C168.648 47.1569 168.922 46.7841 169.265 46.5173C169.611 46.2471 169.988 46.059 170.396 45.953C170.808 45.8435 171.212 45.7888 171.61 45.7888C171.864 45.7888 172.155 45.8196 172.484 45.8811C172.817 45.9393 173.137 46.0607 173.446 46.2454C173.758 46.4301 174.017 46.7089 174.223 47.0817C174.428 47.4545 174.531 47.9538 174.531 48.5798V53.7718H173.317V52.7047H173.256C173.173 52.8757 173.036 53.0587 172.844 53.2536C172.652 53.4486 172.397 53.6145 172.078 53.7513C171.759 53.8881 171.37 53.9565 170.911 53.9565ZM171.096 52.8688C171.576 52.8688 171.98 52.7748 172.309 52.5867C172.642 52.3985 172.892 52.1557 173.06 51.8581C173.232 51.5606 173.317 51.2476 173.317 50.9193V49.8111C173.266 49.8726 173.153 49.9291 172.978 49.9804C172.807 50.0283 172.608 50.071 172.381 50.1086C172.159 50.1428 171.941 50.1736 171.728 50.201C171.519 50.2249 171.349 50.2455 171.219 50.2626C170.904 50.3036 170.609 50.3703 170.335 50.4626C170.064 50.5516 169.844 50.6867 169.676 50.868C169.512 51.0458 169.43 51.2887 169.43 51.5965C169.43 52.0172 169.586 52.3353 169.898 52.5507C170.213 52.7628 170.612 52.8688 171.096 52.8688Z" fill="white"/>
<path d="M177.96 49.0312V53.7718H176.746V45.8914H177.919V47.1227H178.022C178.207 46.7225 178.488 46.401 178.865 46.1582C179.242 45.9119 179.729 45.7888 180.326 45.7888C180.861 45.7888 181.329 45.8982 181.73 46.1171C182.131 46.3326 182.443 46.661 182.666 47.1022C182.889 47.54 183 48.0941 183 48.7645V53.7718H181.786V48.8466C181.786 48.2275 181.625 47.7452 181.303 47.3998C180.981 47.0509 180.538 46.8765 179.976 46.8765C179.589 46.8765 179.242 46.9603 178.937 47.1278C178.636 47.2954 178.397 47.54 178.222 47.8615C178.048 48.183 177.96 48.5729 177.96 49.0312Z" fill="white"/>
</svg>
